STARTFONT 2.1
FONT -Misc-TamzenForPowerline-Bold-R-Normal--12-87-100-100-C-70-ISO10646-1
SIZE 12 100 100
FONTBOUNDINGBOX 7 12 0 -2
STARTPROPERTIES 25
ADD_STYLE_NAME ""
AVERAGE_WIDTH 70
CAP_HEIGHT 7
CHARSET_ENCODING "1"
CHARSET_REGISTRY "ISO10646"
COPYRIGHT "(c) 2010 Scott Fial"
DEFAULT_CHAR 0
FACE_NAME "-Misc-TamzenForPowerline-Bold-R-Normal--12-87-100-100-C-70-ISO10646-1"
FAMILY_NAME "TamzenForPowerline"
FONTNAME_REGISTRY ""
FONT_ASCENT 10
FONT_DESCENT 2
FONT_VERSION "1.6"
FOUNDRY "Misc"
PIXEL_SIZE 17
POINT_SIZE 120
QUAD_WIDTH 7
RESOLUTION_X 100
RESOLUTION_Y 100
SETWIDTH_NAME "Normal"
SLANT "R"
SPACING "C"
WEIGHT 10
WEIGHT_NAME "Bold"
X_HEIGHT 5
ENDPROPERTIES
CHARS 229
STARTCHAR U+0000
ENCODING 0
SWIDTH 411 0
DWIDTH 7 0
BBX 7 12 0 -2
BITMAP
00
00
7C
44
44
44
44
44
44
7C
00
00
ENDCHAR
STARTCHAR U+0001
ENCODING 1
SWIDTH 411 0
DWIDTH 7 0
BBX 7 12 0 -2
BITMAP
00
00
7C
44
44
44
44
44
44
7C
00
00
ENDCHAR
STARTCHAR U+0002
ENCODING 2
SWIDTH 411 0
DWIDTH 7 0
BBX 7 12 0 -2
BITMAP
AA
54
AA
54
AA
54
AA
54
AA
54
AA
54
ENDCHAR
STARTCHAR U+0003
ENCODING 3
SWIDTH 411 0
DWIDTH 7 0
BBX 7 12 0 -2
BITMAP
00
00
7C
44
44
44
44
44
44
7C
00
00
ENDCHAR
STARTCHAR U+0004
ENCODING 4
SWIDTH 411 0
DWIDTH 7 0
BBX 7 12 0 -2
BITMAP
00
00
7C
44
44
44
44
44
44
7C
00
00
ENDCHAR
STARTCHAR U+0005
ENCODING 5
SWIDTH 411 0
DWIDTH 7 0
BBX 7 12 0 -2
BITMAP
00
00
7C
44
44
44
44
44
44
7C
00
00
ENDCHAR
STARTCHAR U+0006
ENCODING 6
SWIDTH 411 0
DWIDTH 7 0
BBX 7 12 0 -2
BITMAP
00
00
7C
44
44
44
44
44
44
7C
00
00
ENDCHAR
STARTCHAR U+0007
ENCODING 7
SWIDTH 411 0
DWIDTH 7 0
BBX 7 12 0 -2
BITMAP
00
00
7C
44
44
44
44
44
44
7C
00
00
ENDCHAR
STARTCHAR U+0008
ENCODING 8
SWIDTH 411 0
DWIDTH 7 0
BBX 7 12 0 -2
BITMAP
00
00
7C
44
44
44
44
44
44
7C
00
00
ENDCHAR
STARTCHAR U+0009
ENCODING 9
SWIDTH 411 0
DWIDTH 7 0
BBX 7 12 0 -2
BITMAP
00
00
7C
44
44
44
44
44
44
7C
00
00
ENDCHAR
STARTCHAR U+000a
ENCODING 10
SWIDTH 411 0
DWIDTH 7 0
BBX 7 12 0 -2
BITMAP
00
00
7C
44
44
44
44
44
44
7C
00
00
ENDCHAR
STARTCHAR U+000b
ENCODING 11
SWIDTH 411 0
DWIDTH 7 0
BBX 7 12 0 -2
BITMAP
30
30
30
30
30
30
F0
00
00
00
00
00
ENDCHAR
STARTCHAR U+000c
ENCODING 12
SWIDTH 411 0
DWIDTH 7 0
BBX 7 12 0 -2
BITMAP
00
00
00
00
00
00
F0
30
30
30
30
30
ENDCHAR
STARTCHAR U+000d
ENCODING 13
SWIDTH 411 0
DWIDTH 7 0
BBX 7 12 0 -2
BITMAP
00
00
00
00
00
00
3E
30
30
30
30
30
ENDCHAR
STARTCHAR U+000e
ENCODING 14
SWIDTH 411 0
DWIDTH 7 0
BBX 7 12 0 -2
BITMAP
30
30
30
30
30
30
3E
00
00
00
00
00
ENDCHAR
STARTCHAR U+000f
ENCODING 15
SWIDTH 411 0
DWIDTH 7 0
BBX 7 12 0 -2
BITMAP
30
30
30
30
30
30
FE
30
30
30
30
30
ENDCHAR
STARTCHAR U+0011
ENCODING 17
SWIDTH 411 0
DWIDTH 7 0
BBX 7 12 0 -2
BITMAP
00
00
00
FE
00
00
00
00
00
00
00
00
ENDCHAR
STARTCHAR U+0012
ENCODING 18
SWIDTH 411 0
DWIDTH 7 0
BBX 7 12 0 -2
BITMAP
00
00
00
00
00
00
FE
00
00
00
00
00
ENDCHAR
STARTCHAR U+0013
ENCODING 19
SWIDTH 411 0
DWIDTH 7 0
BBX 7 12 0 -2
BITMAP
00
00
00
00
00
00
00
00
00
FE
00
00
ENDCHAR
STARTCHAR U+0015
ENCODING 21
SWIDTH 411 0
DWIDTH 7 0
BBX 7 12 0 -2
BITMAP
30
30
30
30
30
30
3E
30
30
30
30
30
ENDCHAR
STARTCHAR U+0016
ENCODING 22
SWIDTH 411 0
DWIDTH 7 0
BBX 7 12 0 -2
BITMAP
30
30
30
30
30
30
F0
30
30
30
30
30
ENDCHAR
STARTCHAR U+0017
ENCODING 23
SWIDTH 411 0
DWIDTH 7 0
BBX 7 12 0 -2
BITMAP
30
30
30
30
30
30
FE
00
00
00
00
00
ENDCHAR
STARTCHAR U+0018
ENCODING 24
SWIDTH 411 0
DWIDTH 7 0
BBX 7 12 0 -2
BITMAP
00
00
00
00
00
00
FE
30
30
30
30
30
ENDCHAR
STARTCHAR U+0019
ENCODING 25
SWIDTH 411 0
DWIDTH 7 0
BBX 7 12 0 -2
BITMAP
30
30
30
30
30
30
30
30
30
30
30
30
ENDCHAR
STARTCHAR U+001a
ENCODING 26
SWIDTH 411 0
DWIDTH 7 0
BBX 7 12 0 -2
BITMAP
00
00
7C
44
44
44
44
44
44
7C
00
00
ENDCHAR
STARTCHAR U+001b
ENCODING 27
SWIDTH 411 0
DWIDTH 7 0
BBX 7 12 0 -2
BITMAP
00
00
7C
44
44
44
44
44
44
7C
00
00
ENDCHAR
STARTCHAR U+001c
ENCODING 28
SWIDTH 411 0
DWIDTH 7 0
BBX 7 12 0 -2
BITMAP
00
00
7C
44
44
44
44
44
44
7C
00
00
ENDCHAR
STARTCHAR U+001d
ENCODING 29
SWIDTH 411 0
DWIDTH 7 0
BBX 7 12 0 -2
BITMAP
00
00
7C
44
44
44
44
44
44
7C
00
00
ENDCHAR
STARTCHAR U+001e
ENCODING 30
SWIDTH 411 0
DWIDTH 7 0
BBX 7 12 0 -2
BITMAP
00
00
7C
44
44
44
44
44
44
7C
00
00
ENDCHAR
STARTCHAR U+001f
ENCODING 31
SWIDTH 411 0
DWIDTH 7 0
BBX 7 12 0 -2
BITMAP
00
00
7C
44
44
44
44
44
44
7C
00
00
ENDCHAR
STARTCHAR U+0020
ENCODING 32
SWIDTH 411 0
DWIDTH 7 0
BBX 7 12 0 -2
BITMAP
00
00
00
00
00
00
00
00
00
00
00
00
ENDCHAR
STARTCHAR U+0021
ENCODING 33
SWIDTH 411 0
DWIDTH 7 0
BBX 7 12 0 -2
BITMAP
00
00
30
78
78
30
30
00
00
30
00
00
ENDCHAR
STARTCHAR U+0022
ENCODING 34
SWIDTH 411 0
DWIDTH 7 0
BBX 7 12 0 -2
BITMAP
00
00
D8
D8
D8
00
00
00
00
00
00
00
ENDCHAR
STARTCHAR U+0023
ENCODING 35
SWIDTH 411 0
DWIDTH 7 0
BBX 7 12 0 -2
BITMAP
00
00
00
6C
6C
FC
48
FC
D8
D8
00
00
ENDCHAR
STARTCHAR U+0024
ENCODING 36
SWIDTH 411 0
DWIDTH 7 0
BBX 7 12 0 -2
BITMAP
00
00
30
30
7C
C0
78
0C
F8
30
30
00
ENDCHAR
STARTCHAR U+0025
ENCODING 37
SWIDTH 411 0
DWIDTH 7 0
BBX 7 12 0 -2
BITMAP
00
00
00
60
AC
D8
30
6C
D4
18
00
00
ENDCHAR
STARTCHAR U+0026
ENCODING 38
SWIDTH 411 0
DWIDTH 7 0
BBX 7 12 0 -2
BITMAP
00
00
70
D8
D8
70
DC
C8
DC
74
00
00
ENDCHAR
STARTCHAR U+0027
ENCODING 39
SWIDTH 411 0
DWIDTH 7 0
BBX 7 12 0 -2
BITMAP
00
00
30
30
30
00
00
00
00
00
00
00
ENDCHAR
STARTCHAR U+0028
ENCODING 40
SWIDTH 411 0
DWIDTH 7 0
BBX 7 12 0 -2
BITMAP
00
00
18
30
30
60
60
60
60
30
30
18
ENDCHAR
STARTCHAR U+0029
ENCODING 41
SWIDTH 411 0
DWIDTH 7 0
BBX 7 12 0 -2
BITMAP
00
00
60
30
30
18
18
18
18
30
30
60
ENDCHAR
STARTCHAR U+002a
ENCODING 42
SWIDTH 411 0
DWIDTH 7 0
BBX 7 12 0 -2
BITMAP
00
00
00
00
20
F8
70
F8
20
00
00
00
ENDCHAR
STARTCHAR U+002b
ENCODING 43
SWIDTH 411 0
DWIDTH 7 0
BBX 7 12 0 -2
BITMAP
00
00
00
00
30
30
FC
30
30
00
00
00
ENDCHAR
STARTCHAR U+002c
ENCODING 44
SWIDTH 411 0
DWIDTH 7 0
BBX 7 12 0 -2
BITMAP
00
00
00
00
00
00
00
00
70
70
30
60
ENDCHAR
STARTCHAR U+002d
ENCODING 45
SWIDTH 411 0
DWIDTH 7 0
BBX 7 12 0 -2
BITMAP
00
00
00
00
00
00
F8
00
00
00
00
00
ENDCHAR
STARTCHAR U+002e
ENCODING 46
SWIDTH 411 0
DWIDTH 7 0
BBX 7 12 0 -2
BITMAP
00
00
00
00
00
00
00
00
70
70
00
00
ENDCHAR
STARTCHAR U+002f
ENCODING 47
SWIDTH 411 0
DWIDTH 7 0
BBX 7 12 0 -2
BITMAP
00
00
00
18
18
30
30
60
60
C0
C0
00
ENDCHAR
STARTCHAR U+0030
ENCODING 48
SWIDTH 411 0
DWIDTH 7 0
BBX 7 12 0 -2
BITMAP
00
00
00
78
CC
DC
EC
CC
CC
78
00
00
ENDCHAR
STARTCHAR U+0031
ENCODING 49
SWIDTH 411 0
DWIDTH 7 0
BBX 7 12 0 -2
BITMAP
00
00
00
30
70
F0
30
30
30
30
00
00
ENDCHAR
STARTCHAR U+0032
ENCODING 50
SWIDTH 411 0
DWIDTH 7 0
BBX 7 12 0 -2
BITMAP
00
00
00
78
CC
0C
18
30
60
FC
00
00
ENDCHAR
STARTCHAR U+0033
ENCODING 51
SWIDTH 411 0
DWIDTH 7 0
BBX 7 12 0 -2
BITMAP
00
00
00
FC
0C
18
38
0C
CC
78
00
00
ENDCHAR
STARTCHAR U+0034
ENCODING 52
SWIDTH 411 0
DWIDTH 7 0
BBX 7 12 0 -2
BITMAP
00
00
00
18
38
58
98
FC
18
18
00
00
ENDCHAR
STARTCHAR U+0035
ENCODING 53
SWIDTH 411 0
DWIDTH 7 0
BBX 7 12 0 -2
BITMAP
00
00
00
FC
C0
F8
0C
0C
CC
78
00
00
ENDCHAR
STARTCHAR U+0036
ENCODING 54
SWIDTH 411 0
DWIDTH 7 0
BBX 7 12 0 -2
BITMAP
00
00
00
38
60
C0
F8
CC
CC
78
00
00
ENDCHAR
STARTCHAR U+0037
ENCODING 55
SWIDTH 411 0
DWIDTH 7 0
BBX 7 12 0 -2
BITMAP
00
00
00
FC
0C
18
18
30
30
30
00
00
ENDCHAR
STARTCHAR U+0038
ENCODING 56
SWIDTH 411 0
DWIDTH 7 0
BBX 7 12 0 -2
BITMAP
00
00
00
78
CC
CC
78
CC
CC
78
00
00
ENDCHAR
STARTCHAR U+0039
ENCODING 57
SWIDTH 411 0
DWIDTH 7 0
BBX 7 12 0 -2
BITMAP
00
00
00
78
CC
CC
7C
0C
18
70
00
00
ENDCHAR
STARTCHAR U+003a
ENCODING 58
SWIDTH 411 0
DWIDTH 7 0
BBX 7 12 0 -2
BITMAP
00
00
00
00
70
70
00
00
70
70
00
00
ENDCHAR
STARTCHAR U+003b
ENCODING 59
SWIDTH 411 0
DWIDTH 7 0
BBX 7 12 0 -2
BITMAP
00
00
00
00
70
70
00
00
70
70
30
60
ENDCHAR
STARTCHAR U+003c
ENCODING 60
SWIDTH 411 0
DWIDTH 7 0
BBX 7 12 0 -2
BITMAP
00
00
00
0C
18
30
60
30
18
0C
00
00
ENDCHAR
STARTCHAR U+003d
ENCODING 61
SWIDTH 411 0
DWIDTH 7 0
BBX 7 12 0 -2
BITMAP
00
00
00
00
00
F8
00
F8
00
00
00
00
ENDCHAR
STARTCHAR U+003e
ENCODING 62
SWIDTH 411 0
DWIDTH 7 0
BBX 7 12 0 -2
BITMAP
00
00
00
C0
60
30
18
30
60
C0
00
00
ENDCHAR
STARTCHAR U+003f
ENCODING 63
SWIDTH 411 0
DWIDTH 7 0
BBX 7 12 0 -2
BITMAP
00
00
78
8C
0C
18
30
00
00
30
00
00
ENDCHAR
STARTCHAR U+0040
ENCODING 64
SWIDTH 411 0
DWIDTH 7 0
BBX 7 12 0 -2
BITMAP
00
00
78
CC
CC
DC
DC
DC
C0
C0
7C
00
ENDCHAR
STARTCHAR U+0041
ENCODING 65
SWIDTH 411 0
DWIDTH 7 0
BBX 7 12 0 -2
BITMAP
00
00
00
30
78
CC
CC
FC
CC
CC
00
00
ENDCHAR
STARTCHAR U+0042
ENCODING 66
SWIDTH 411 0
DWIDTH 7 0
BBX 7 12 0 -2
BITMAP
00
00
00
F8
CC
CC
F8
CC
CC
F8
00
00
ENDCHAR
STARTCHAR U+0043
ENCODING 67
SWIDTH 411 0
DWIDTH 7 0
BBX 7 12 0 -2
BITMAP
00
00
00
78
CC
C0
C0
C0
CC
78
00
00
ENDCHAR
STARTCHAR U+0044
ENCODING 68
SWIDTH 411 0
DWIDTH 7 0
BBX 7 12 0 -2
BITMAP
00
00
00
F8
CC
CC
CC
CC
D8
F0
00
00
ENDCHAR
STARTCHAR U+0045
ENCODING 69
SWIDTH 411 0
DWIDTH 7 0
BBX 7 12 0 -2
BITMAP
00
00
00
FC
C0
C0
F8
C0
C0
FC
00
00
ENDCHAR
STARTCHAR U+0046
ENCODING 70
SWIDTH 411 0
DWIDTH 7 0
BBX 7 12 0 -2
BITMAP
00
00
00
FC
C0
C0
F8
C0
C0
C0
00
00
ENDCHAR
STARTCHAR U+0047
ENCODING 71
SWIDTH 411 0
DWIDTH 7 0
BBX 7 12 0 -2
BITMAP
00
00
00
78
CC
C0
DC
CC
CC
7C
00
00
ENDCHAR
STARTCHAR U+0048
ENCODING 72
SWIDTH 411 0
DWIDTH 7 0
BBX 7 12 0 -2
BITMAP
00
00
00
CC
CC
CC
FC
CC
CC
CC
00
00
ENDCHAR
STARTCHAR U+0049
ENCODING 73
SWIDTH 411 0
DWIDTH 7 0
BBX 7 12 0 -2
BITMAP
00
00
00
78
30
30
30
30
30
78
00
00
ENDCHAR
STARTCHAR U+004a
ENCODING 74
SWIDTH 411 0
DWIDTH 7 0
BBX 7 12 0 -2
BITMAP
00
00
00
0C
0C
0C
0C
CC
CC
78
00
00
ENDCHAR
STARTCHAR U+004b
ENCODING 75
SWIDTH 411 0
DWIDTH 7 0
BBX 7 12 0 -2
BITMAP
00
00
00
CC
D8
F0
E0
F0
D8
CC
00
00
ENDCHAR
STARTCHAR U+004c
ENCODING 76
SWIDTH 411 0
DWIDTH 7 0
BBX 7 12 0 -2
BITMAP
00
00
00
C0
C0
C0
C0
C0
C0
FC
00
00
ENDCHAR
STARTCHAR U+004d
ENCODING 77
SWIDTH 411 0
DWIDTH 7 0
BBX 7 12 0 -2
BITMAP
00
00
00
CC
FC
FC
CC
CC
CC
CC
00
00
ENDCHAR
STARTCHAR U+004e
ENCODING 78
SWIDTH 411 0
DWIDTH 7 0
BBX 7 12 0 -2
BITMAP
00
00
00
CC
EC
FC
DC
CC
CC
CC
00
00
ENDCHAR
STARTCHAR U+004f
ENCODING 79
SWIDTH 411 0
DWIDTH 7 0
BBX 7 12 0 -2
BITMAP
00
00
00
78
CC
CC
CC
CC
CC
78
00
00
ENDCHAR
STARTCHAR U+0050
ENCODING 80
SWIDTH 411 0
DWIDTH 7 0
BBX 7 12 0 -2
BITMAP
00
00
00
F8
CC
CC
F8
C0
C0
C0
00
00
ENDCHAR
STARTCHAR U+0051
ENCODING 81
SWIDTH 411 0
DWIDTH 7 0
BBX 7 12 0 -2
BITMAP
00
00
00
78
CC
CC
CC
CC
CC
78
1C
00
ENDCHAR
STARTCHAR U+0052
ENCODING 82
SWIDTH 411 0
DWIDTH 7 0
BBX 7 12 0 -2
BITMAP
00
00
00
F8
CC
CC
F8
CC
CC
CC
00
00
ENDCHAR
STARTCHAR U+0053
ENCODING 83
SWIDTH 411 0
DWIDTH 7 0
BBX 7 12 0 -2
BITMAP
00
00
00
78
CC
C0
78
0C
CC
78
00
00
ENDCHAR
STARTCHAR U+0054
ENCODING 84
SWIDTH 411 0
DWIDTH 7 0
BBX 7 12 0 -2
BITMAP
00
00
00
FC
30
30
30
30
30
30
00
00
ENDCHAR
STARTCHAR U+0055
ENCODING 85
SWIDTH 411 0
DWIDTH 7 0
BBX 7 12 0 -2
BITMAP
00
00
00
CC
CC
CC
CC
CC
CC
78
00
00
ENDCHAR
STARTCHAR U+0056
ENCODING 86
SWIDTH 411 0
DWIDTH 7 0
BBX 7 12 0 -2
BITMAP
00
00
00
CC
CC
CC
CC
CC
78
30
00
00
ENDCHAR
STARTCHAR U+0057
ENCODING 87
SWIDTH 411 0
DWIDTH 7 0
BBX 7 12 0 -2
BITMAP
00
00
00
CC
CC
CC
CC
FC
FC
CC
00
00
ENDCHAR
STARTCHAR U+0058
ENCODING 88
SWIDTH 411 0
DWIDTH 7 0
BBX 7 12 0 -2
BITMAP
00
00
00
CC
CC
78
30
78
CC
CC
00
00
ENDCHAR
STARTCHAR U+0059
ENCODING 89
SWIDTH 411 0
DWIDTH 7 0
BBX 7 12 0 -2
BITMAP
00
00
00
CC
CC
78
30
30
30
30
00
00
ENDCHAR
STARTCHAR U+005a
ENCODING 90
SWIDTH 411 0
DWIDTH 7 0
BBX 7 12 0 -2
BITMAP
00
00
00
FC
0C
18
30
60
C0
FC
00
00
ENDCHAR
STARTCHAR U+005b
ENCODING 91
SWIDTH 411 0
DWIDTH 7 0
BBX 7 12 0 -2
BITMAP
00
00
78
60
60
60
60
60
60
60
60
78
ENDCHAR
STARTCHAR U+005c
ENCODING 92
SWIDTH 411 0
DWIDTH 7 0
BBX 7 12 0 -2
BITMAP
00
00
00
C0
C0
60
60
30
30
18
18
00
ENDCHAR
STARTCHAR U+005d
ENCODING 93
SWIDTH 411 0
DWIDTH 7 0
BBX 7 12 0 -2
BITMAP
00
00
78
18
18
18
18
18
18
18
18
78
ENDCHAR
STARTCHAR U+005e
ENCODING 94
SWIDTH 411 0
DWIDTH 7 0
BBX 7 12 0 -2
BITMAP
00
00
00
30
78
CC
00
00
00
00
00
00
ENDCHAR
STARTCHAR U+005f
ENCODING 95
SWIDTH 411 0
DWIDTH 7 0
BBX 7 12 0 -2
BITMAP
00
00
00
00
00
00
00
00
00
00
00
FE
ENDCHAR
STARTCHAR U+0060
ENCODING 96
SWIDTH 411 0
DWIDTH 7 0
BBX 7 12 0 -2
BITMAP
00
00
60
30
18
00
00
00
00
00
00
00
ENDCHAR
STARTCHAR U+0061
ENCODING 97
SWIDTH 411 0
DWIDTH 7 0
BBX 7 12 0 -2
BITMAP
00
00
00
00
00
78
0C
7C
CC
7C
00
00
ENDCHAR
STARTCHAR U+0062
ENCODING 98
SWIDTH 411 0
DWIDTH 7 0
BBX 7 12 0 -2
BITMAP
00
00
00
C0
C0
F8
CC
CC
CC
F8
00
00
ENDCHAR
STARTCHAR U+0063
ENCODING 99
SWIDTH 411 0
DWIDTH 7 0
BBX 7 12 0 -2
BITMAP
00
00
00
00
00
7C
C0
C0
C0
7C
00
00
ENDCHAR
STARTCHAR U+0064
ENCODING 100
SWIDTH 411 0
DWIDTH 7 0
BBX 7 12 0 -2
BITMAP
00
00
00
0C
0C
7C
CC
CC
CC
7C
00
00
ENDCHAR
STARTCHAR U+0065
ENCODING 101
SWIDTH 411 0
DWIDTH 7 0
BBX 7 12 0 -2
BITMAP
00
00
00
00
00
78
CC
FC
C0
7C
00
00
ENDCHAR
STARTCHAR U+0066
ENCODING 102
SWIDTH 411 0
DWIDTH 7 0
BBX 7 12 0 -2
BITMAP
00
00
00
3C
60
60
FC
60
60
60
00
00
ENDCHAR
STARTCHAR U+0067
ENCODING 103
SWIDTH 411 0
DWIDTH 7 0
BBX 7 12 0 -2
BITMAP
00
00
00
00
00
7C
CC
78
C0
7C
C6
7C
ENDCHAR
STARTCHAR U+0068
ENCODING 104
SWIDTH 411 0
DWIDTH 7 0
BBX 7 12 0 -2
BITMAP
00
00
00
C0
C0
F8
CC
CC
CC
CC
00
00
ENDCHAR
STARTCHAR U+0069
ENCODING 105
SWIDTH 411 0
DWIDTH 7 0
BBX 7 12 0 -2
BITMAP
00
00
00
30
00
70
30
30
30
78
00
00
ENDCHAR
STARTCHAR U+006a
ENCODING 106
SWIDTH 411 0
DWIDTH 7 0
BBX 7 12 0 -2
BITMAP
00
00
00
18
00
38
18
18
18
18
D8
70
ENDCHAR
STARTCHAR U+006b
ENCODING 107
SWIDTH 411 0
DWIDTH 7 0
BBX 7 12 0 -2
BITMAP
00
00
00
C0
C0
D8
F0
F0
D8
CC
00
00
ENDCHAR
STARTCHAR U+006c
ENCODING 108
SWIDTH 411 0
DWIDTH 7 0
BBX 7 12 0 -2
BITMAP
00
00
00
70
30
30
30
30
30
1C
00
00
ENDCHAR
STARTCHAR U+006d
ENCODING 109
SWIDTH 411 0
DWIDTH 7 0
BBX 7 12 0 -2
BITMAP
00
00
00
00
00
F8
D4
D4
D4
D4
00
00
ENDCHAR
STARTCHAR U+006e
ENCODING 110
SWIDTH 411 0
DWIDTH 7 0
BBX 7 12 0 -2
BITMAP
00
00
00
00
00
F8
CC
CC
CC
CC
00
00
ENDCHAR
STARTCHAR U+006f
ENCODING 111
SWIDTH 411 0
DWIDTH 7 0
BBX 7 12 0 -2
BITMAP
00
00
00
00
00
78
CC
CC
CC
78
00
00
ENDCHAR
STARTCHAR U+0070
ENCODING 112
SWIDTH 411 0
DWIDTH 7 0
BBX 7 12 0 -2
BITMAP
00
00
00
00
00
F8
CC
CC
CC
F8
C0
C0
ENDCHAR
STARTCHAR U+0071
ENCODING 113
SWIDTH 411 0
DWIDTH 7 0
BBX 7 12 0 -2
BITMAP
00
00
00
00
00
7C
CC
CC
CC
7C
0C
0C
ENDCHAR
STARTCHAR U+0072
ENCODING 114
SWIDTH 411 0
DWIDTH 7 0
BBX 7 12 0 -2
BITMAP
00
00
00
00
00
DC
E0
C0
C0
C0
00
00
ENDCHAR
STARTCHAR U+0073
ENCODING 115
SWIDTH 411 0
DWIDTH 7 0
BBX 7 12 0 -2
BITMAP
00
00
00
00
00
7C
C0
78
0C
F8
00
00
ENDCHAR
STARTCHAR U+0074
ENCODING 116
SWIDTH 411 0
DWIDTH 7 0
BBX 7 12 0 -2
BITMAP
00
00
00
60
60
FC
60
60
60
3C
00
00
ENDCHAR
STARTCHAR U+0075
ENCODING 117
SWIDTH 411 0
DWIDTH 7 0
BBX 7 12 0 -2
BITMAP
00
00
00
00
00
CC
CC
CC
CC
7C
00
00
ENDCHAR
STARTCHAR U+0076
ENCODING 118
SWIDTH 411 0
DWIDTH 7 0
BBX 7 12 0 -2
BITMAP
00
00
00
00
00
CC
CC
CC
78
30
00
00
ENDCHAR
STARTCHAR U+0077
ENCODING 119
SWIDTH 411 0
DWIDTH 7 0
BBX 7 12 0 -2
BITMAP
00
00
00
00
00
D4
D4
D4
D4
F8
00
00
ENDCHAR
STARTCHAR U+0078
ENCODING 120
SWIDTH 411 0
DWIDTH 7 0
BBX 7 12 0 -2
BITMAP
00
00
00
00
00
CC
78
30
78
CC
00
00
ENDCHAR
STARTCHAR U+0079
ENCODING 121
SWIDTH 411 0
DWIDTH 7 0
BBX 7 12 0 -2
BITMAP
00
00
00
00
00
CC
CC
CC
CC
7C
0C
78
ENDCHAR
STARTCHAR U+007a
ENCODING 122
SWIDTH 411 0
DWIDTH 7 0
BBX 7 12 0 -2
BITMAP
00
00
00
00
00
FC
18
30
60
FC
00
00
ENDCHAR
STARTCHAR U+007b
ENCODING 123
SWIDTH 411 0
DWIDTH 7 0
BBX 7 12 0 -2
BITMAP
00
1C
30
30
30
30
E0
30
30
30
30
1C
ENDCHAR
STARTCHAR U+007c
ENCODING 124
SWIDTH 411 0
DWIDTH 7 0
BBX 7 12 0 -2
BITMAP
00
00
30
30
30
30
30
30
30
30
30
00
ENDCHAR
STARTCHAR U+007d
ENCODING 125
SWIDTH 411 0
DWIDTH 7 0
BBX 7 12 0 -2
BITMAP
00
E0
30
30
30
30
1C
30
30
30
30
E0
ENDCHAR
STARTCHAR U+007e
ENCODING 126
SWIDTH 411 0
DWIDTH 7 0
BBX 7 12 0 -2
BITMAP
00
00
00
64
FC
98
00
00
00
00
00
00
ENDCHAR
STARTCHAR U+0000
ENCODING 160
SWIDTH 411 0
DWIDTH 7 0
BBX 7 12 0 -2
BITMAP
00
00
7C
44
44
44
44
44
44
7C
00
00
ENDCHAR
STARTCHAR U+0000
ENCODING 161
SWIDTH 411 0
DWIDTH 7 0
BBX 7 12 0 -2
BITMAP
00
00
7C
44
44
44
44
44
44
7C
00
00
ENDCHAR
STARTCHAR U+0000
ENCODING 162
SWIDTH 411 0
DWIDTH 7 0
BBX 7 12 0 -2
BITMAP
00
00
7C
44
44
44
44
44
44
7C
00
00
ENDCHAR
STARTCHAR U+0000
ENCODING 163
SWIDTH 411 0
DWIDTH 7 0
BBX 7 12 0 -2
BITMAP
00
00
7C
44
44
44
44
44
44
7C
00
00
ENDCHAR
STARTCHAR U+0000
ENCODING 164
SWIDTH 411 0
DWIDTH 7 0
BBX 7 12 0 -2
BITMAP
00
00
7C
44
44
44
44
44
44
7C
00
00
ENDCHAR
STARTCHAR U+0000
ENCODING 165
SWIDTH 411 0
DWIDTH 7 0
BBX 7 12 0 -2
BITMAP
00
00
7C
44
44
44
44
44
44
7C
00
00
ENDCHAR
STARTCHAR U+0000
ENCODING 166
SWIDTH 411 0
DWIDTH 7 0
BBX 7 12 0 -2
BITMAP
00
00
7C
44
44
44
44
44
44
7C
00
00
ENDCHAR
STARTCHAR U+0000
ENCODING 167
SWIDTH 411 0
DWIDTH 7 0
BBX 7 12 0 -2
BITMAP
00
00
7C
44
44
44
44
44
44
7C
00
00
ENDCHAR
STARTCHAR U+0000
ENCODING 168
SWIDTH 411 0
DWIDTH 7 0
BBX 7 12 0 -2
BITMAP
00
00
7C
44
44
44
44
44
44
7C
00
00
ENDCHAR
STARTCHAR U+0000
ENCODING 169
SWIDTH 411 0
DWIDTH 7 0
BBX 7 12 0 -2
BITMAP
00
00
7C
44
44
44
44
44
44
7C
00
00
ENDCHAR
STARTCHAR U+0000
ENCODING 170
SWIDTH 411 0
DWIDTH 7 0
BBX 7 12 0 -2
BITMAP
00
00
7C
44
44
44
44
44
44
7C
00
00
ENDCHAR
STARTCHAR U+0000
ENCODING 171
SWIDTH 411 0
DWIDTH 7 0
BBX 7 12 0 -2
BITMAP
00
00
7C
44
44
44
44
44
44
7C
00
00
ENDCHAR
STARTCHAR U+0000
ENCODING 172
SWIDTH 411 0
DWIDTH 7 0
BBX 7 12 0 -2
BITMAP
00
00
7C
44
44
44
44
44
44
7C
00
00
ENDCHAR
STARTCHAR U+0000
ENCODING 173
SWIDTH 411 0
DWIDTH 7 0
BBX 7 12 0 -2
BITMAP
00
00
7C
44
44
44
44
44
44
7C
00
00
ENDCHAR
STARTCHAR U+0000
ENCODING 174
SWIDTH 411 0
DWIDTH 7 0
BBX 7 12 0 -2
BITMAP
00
00
7C
44
44
44
44
44
44
7C
00
00
ENDCHAR
STARTCHAR U+0000
ENCODING 175
SWIDTH 411 0
DWIDTH 7 0
BBX 7 12 0 -2
BITMAP
00
00
7C
44
44
44
44
44
44
7C
00
00
ENDCHAR
STARTCHAR U+0000
ENCODING 176
SWIDTH 411 0
DWIDTH 7 0
BBX 7 12 0 -2
BITMAP
00
00
7C
44
44
44
44
44
44
7C
00
00
ENDCHAR
STARTCHAR U+0000
ENCODING 177
SWIDTH 411 0
DWIDTH 7 0
BBX 7 12 0 -2
BITMAP
00
00
7C
44
44
44
44
44
44
7C
00
00
ENDCHAR
STARTCHAR U+0000
ENCODING 178
SWIDTH 411 0
DWIDTH 7 0
BBX 7 12 0 -2
BITMAP
00
00
7C
44
44
44
44
44
44
7C
00
00
ENDCHAR
STARTCHAR U+0000
ENCODING 179
SWIDTH 411 0
DWIDTH 7 0
BBX 7 12 0 -2
BITMAP
00
00
7C
44
44
44
44
44
44
7C
00
00
ENDCHAR
STARTCHAR U+0000
ENCODING 180
SWIDTH 411 0
DWIDTH 7 0
BBX 7 12 0 -2
BITMAP
00
00
7C
44
44
44
44
44
44
7C
00
00
ENDCHAR
STARTCHAR U+0000
ENCODING 181
SWIDTH 411 0
DWIDTH 7 0
BBX 7 12 0 -2
BITMAP
00
00
7C
44
44
44
44
44
44
7C
00
00
ENDCHAR
STARTCHAR U+0000
ENCODING 182
SWIDTH 411 0
DWIDTH 7 0
BBX 7 12 0 -2
BITMAP
00
00
7C
44
44
44
44
44
44
7C
00
00
ENDCHAR
STARTCHAR U+0000
ENCODING 183
SWIDTH 411 0
DWIDTH 7 0
BBX 7 12 0 -2
BITMAP
00
00
7C
44
44
44
44
44
44
7C
00
00
ENDCHAR
STARTCHAR U+0000
ENCODING 184
SWIDTH 411 0
DWIDTH 7 0
BBX 7 12 0 -2
BITMAP
00
00
7C
44
44
44
44
44
44
7C
00
00
ENDCHAR
STARTCHAR U+0000
ENCODING 185
SWIDTH 411 0
DWIDTH 7 0
BBX 7 12 0 -2
BITMAP
00
00
7C
44
44
44
44
44
44
7C
00
00
ENDCHAR
STARTCHAR U+0000
ENCODING 186
SWIDTH 411 0
DWIDTH 7 0
BBX 7 12 0 -2
BITMAP
00
00
7C
44
44
44
44
44
44
7C
00
00
ENDCHAR
STARTCHAR U+0000
ENCODING 187
SWIDTH 411 0
DWIDTH 7 0
BBX 7 12 0 -2
BITMAP
00
00
7C
44
44
44
44
44
44
7C
00
00
ENDCHAR
STARTCHAR U+0000
ENCODING 188
SWIDTH 411 0
DWIDTH 7 0
BBX 7 12 0 -2
BITMAP
00
00
7C
44
44
44
44
44
44
7C
00
00
ENDCHAR
STARTCHAR U+0000
ENCODING 189
SWIDTH 411 0
DWIDTH 7 0
BBX 7 12 0 -2
BITMAP
00
00
7C
44
44
44
44
44
44
7C
00
00
ENDCHAR
STARTCHAR U+0000
ENCODING 190
SWIDTH 411 0
DWIDTH 7 0
BBX 7 12 0 -2
BITMAP
00
00
7C
44
44
44
44
44
44
7C
00
00
ENDCHAR
STARTCHAR U+0000
ENCODING 191
SWIDTH 411 0
DWIDTH 7 0
BBX 7 12 0 -2
BITMAP
00
00
7C
44
44
44
44
44
44
7C
00
00
ENDCHAR
STARTCHAR U+0000
ENCODING 192
SWIDTH 411 0
DWIDTH 7 0
BBX 7 12 0 -2
BITMAP
00
00
7C
44
44
44
44
44
44
7C
00
00
ENDCHAR
STARTCHAR U+0000
ENCODING 193
SWIDTH 411 0
DWIDTH 7 0
BBX 7 12 0 -2
BITMAP
00
00
7C
44
44
44
44
44
44
7C
00
00
ENDCHAR
STARTCHAR U+0000
ENCODING 194
SWIDTH 411 0
DWIDTH 7 0
BBX 7 12 0 -2
BITMAP
00
00
7C
44
44
44
44
44
44
7C
00
00
ENDCHAR
STARTCHAR U+0000
ENCODING 195
SWIDTH 411 0
DWIDTH 7 0
BBX 7 12 0 -2
BITMAP
00
00
7C
44
44
44
44
44
44
7C
00
00
ENDCHAR
STARTCHAR U+0000
ENCODING 196
SWIDTH 411 0
DWIDTH 7 0
BBX 7 12 0 -2
BITMAP
00
00
7C
44
44
44
44
44
44
7C
00
00
ENDCHAR
STARTCHAR U+0000
ENCODING 197
SWIDTH 411 0
DWIDTH 7 0
BBX 7 12 0 -2
BITMAP
00
00
7C
44
44
44
44
44
44
7C
00
00
ENDCHAR
STARTCHAR U+0000
ENCODING 198
SWIDTH 411 0
DWIDTH 7 0
BBX 7 12 0 -2
BITMAP
00
00
7C
44
44
44
44
44
44
7C
00
00
ENDCHAR
STARTCHAR U+0000
ENCODING 199
SWIDTH 411 0
DWIDTH 7 0
BBX 7 12 0 -2
BITMAP
00
00
7C
44
44
44
44
44
44
7C
00
00
ENDCHAR
STARTCHAR U+0000
ENCODING 200
SWIDTH 411 0
DWIDTH 7 0
BBX 7 12 0 -2
BITMAP
00
00
7C
44
44
44
44
44
44
7C
00
00
ENDCHAR
STARTCHAR U+0000
ENCODING 201
SWIDTH 411 0
DWIDTH 7 0
BBX 7 12 0 -2
BITMAP
00
00
7C
44
44
44
44
44
44
7C
00
00
ENDCHAR
STARTCHAR U+0000
ENCODING 202
SWIDTH 411 0
DWIDTH 7 0
BBX 7 12 0 -2
BITMAP
00
00
7C
44
44
44
44
44
44
7C
00
00
ENDCHAR
STARTCHAR U+0000
ENCODING 203
SWIDTH 411 0
DWIDTH 7 0
BBX 7 12 0 -2
BITMAP
00
00
7C
44
44
44
44
44
44
7C
00
00
ENDCHAR
STARTCHAR U+0000
ENCODING 204
SWIDTH 411 0
DWIDTH 7 0
BBX 7 12 0 -2
BITMAP
00
00
7C
44
44
44
44
44
44
7C
00
00
ENDCHAR
STARTCHAR U+0000
ENCODING 205
SWIDTH 411 0
DWIDTH 7 0
BBX 7 12 0 -2
BITMAP
00
00
7C
44
44
44
44
44
44
7C
00
00
ENDCHAR
STARTCHAR U+0000
ENCODING 206
SWIDTH 411 0
DWIDTH 7 0
BBX 7 12 0 -2
BITMAP
00
00
7C
44
44
44
44
44
44
7C
00
00
ENDCHAR
STARTCHAR U+0000
ENCODING 207
SWIDTH 411 0
DWIDTH 7 0
BBX 7 12 0 -2
BITMAP
00
00
7C
44
44
44
44
44
44
7C
00
00
ENDCHAR
STARTCHAR U+0000
ENCODING 208
SWIDTH 411 0
DWIDTH 7 0
BBX 7 12 0 -2
BITMAP
00
00
7C
44
44
44
44
44
44
7C
00
00
ENDCHAR
STARTCHAR U+0000
ENCODING 209
SWIDTH 411 0
DWIDTH 7 0
BBX 7 12 0 -2
BITMAP
00
00
7C
44
44
44
44
44
44
7C
00
00
ENDCHAR
STARTCHAR U+0000
ENCODING 210
SWIDTH 411 0
DWIDTH 7 0
BBX 7 12 0 -2
BITMAP
00
00
7C
44
44
44
44
44
44
7C
00
00
ENDCHAR
STARTCHAR U+0000
ENCODING 211
SWIDTH 411 0
DWIDTH 7 0
BBX 7 12 0 -2
BITMAP
00
00
7C
44
44
44
44
44
44
7C
00
00
ENDCHAR
STARTCHAR U+0000
ENCODING 212
SWIDTH 411 0
DWIDTH 7 0
BBX 7 12 0 -2
BITMAP
00
00
7C
44
44
44
44
44
44
7C
00
00
ENDCHAR
STARTCHAR U+0000
ENCODING 213
SWIDTH 411 0
DWIDTH 7 0
BBX 7 12 0 -2
BITMAP
00
00
7C
44
44
44
44
44
44
7C
00
00
ENDCHAR
STARTCHAR U+0000
ENCODING 214
SWIDTH 411 0
DWIDTH 7 0
BBX 7 12 0 -2
BITMAP
00
00
7C
44
44
44
44
44
44
7C
00
00
ENDCHAR
STARTCHAR U+0000
ENCODING 215
SWIDTH 411 0
DWIDTH 7 0
BBX 7 12 0 -2
BITMAP
00
00
7C
44
44
44
44
44
44
7C
00
00
ENDCHAR
STARTCHAR U+0000
ENCODING 216
SWIDTH 411 0
DWIDTH 7 0
BBX 7 12 0 -2
BITMAP
00
00
7C
44
44
44
44
44
44
7C
00
00
ENDCHAR
STARTCHAR U+0000
ENCODING 217
SWIDTH 411 0
DWIDTH 7 0
BBX 7 12 0 -2
BITMAP
00
00
7C
44
44
44
44
44
44
7C
00
00
ENDCHAR
STARTCHAR U+0000
ENCODING 218
SWIDTH 411 0
DWIDTH 7 0
BBX 7 12 0 -2
BITMAP
00
00
7C
44
44
44
44
44
44
7C
00
00
ENDCHAR
STARTCHAR U+0000
ENCODING 219
SWIDTH 411 0
DWIDTH 7 0
BBX 7 12 0 -2
BITMAP
00
00
7C
44
44
44
44
44
44
7C
00
00
ENDCHAR
STARTCHAR U+0000
ENCODING 220
SWIDTH 411 0
DWIDTH 7 0
BBX 7 12 0 -2
BITMAP
00
00
7C
44
44
44
44
44
44
7C
00
00
ENDCHAR
STARTCHAR U+0000
ENCODING 221
SWIDTH 411 0
DWIDTH 7 0
BBX 7 12 0 -2
BITMAP
00
00
7C
44
44
44
44
44
44
7C
00
00
ENDCHAR
STARTCHAR U+0000
ENCODING 222
SWIDTH 411 0
DWIDTH 7 0
BBX 7 12 0 -2
BITMAP
00
00
7C
44
44
44
44
44
44
7C
00
00
ENDCHAR
STARTCHAR U+0000
ENCODING 223
SWIDTH 411 0
DWIDTH 7 0
BBX 7 12 0 -2
BITMAP
00
00
7C
44
44
44
44
44
44
7C
00
00
ENDCHAR
STARTCHAR U+0000
ENCODING 224
SWIDTH 411 0
DWIDTH 7 0
BBX 7 12 0 -2
BITMAP
00
00
7C
44
44
44
44
44
44
7C
00
00
ENDCHAR
STARTCHAR U+0000
ENCODING 225
SWIDTH 411 0
DWIDTH 7 0
BBX 7 12 0 -2
BITMAP
00
00
7C
44
44
44
44
44
44
7C
00
00
ENDCHAR
STARTCHAR U+0000
ENCODING 226
SWIDTH 411 0
DWIDTH 7 0
BBX 7 12 0 -2
BITMAP
00
00
7C
44
44
44
44
44
44
7C
00
00
ENDCHAR
STARTCHAR U+0000
ENCODING 227
SWIDTH 411 0
DWIDTH 7 0
BBX 7 12 0 -2
BITMAP
00
00
7C
44
44
44
44
44
44
7C
00
00
ENDCHAR
STARTCHAR U+0000
ENCODING 228
SWIDTH 411 0
DWIDTH 7 0
BBX 7 12 0 -2
BITMAP
00
00
7C
44
44
44
44
44
44
7C
00
00
ENDCHAR
STARTCHAR U+0000
ENCODING 229
SWIDTH 411 0
DWIDTH 7 0
BBX 7 12 0 -2
BITMAP
00
00
7C
44
44
44
44
44
44
7C
00
00
ENDCHAR
STARTCHAR U+0000
ENCODING 230
SWIDTH 411 0
DWIDTH 7 0
BBX 7 12 0 -2
BITMAP
00
00
7C
44
44
44
44
44
44
7C
00
00
ENDCHAR
STARTCHAR U+0000
ENCODING 231
SWIDTH 411 0
DWIDTH 7 0
BBX 7 12 0 -2
BITMAP
00
00
7C
44
44
44
44
44
44
7C
00
00
ENDCHAR
STARTCHAR U+0000
ENCODING 232
SWIDTH 411 0
DWIDTH 7 0
BBX 7 12 0 -2
BITMAP
00
00
7C
44
44
44
44
44
44
7C
00
00
ENDCHAR
STARTCHAR U+0000
ENCODING 233
SWIDTH 411 0
DWIDTH 7 0
BBX 7 12 0 -2
BITMAP
00
00
7C
44
44
44
44
44
44
7C
00
00
ENDCHAR
STARTCHAR U+0000
ENCODING 234
SWIDTH 411 0
DWIDTH 7 0
BBX 7 12 0 -2
BITMAP
00
00
7C
44
44
44
44
44
44
7C
00
00
ENDCHAR
STARTCHAR U+0000
ENCODING 235
SWIDTH 411 0
DWIDTH 7 0
BBX 7 12 0 -2
BITMAP
00
00
7C
44
44
44
44
44
44
7C
00
00
ENDCHAR
STARTCHAR U+0000
ENCODING 236
SWIDTH 411 0
DWIDTH 7 0
BBX 7 12 0 -2
BITMAP
00
00
7C
44
44
44
44
44
44
7C
00
00
ENDCHAR
STARTCHAR U+0000
ENCODING 237
SWIDTH 411 0
DWIDTH 7 0
BBX 7 12 0 -2
BITMAP
00
00
7C
44
44
44
44
44
44
7C
00
00
ENDCHAR
STARTCHAR U+0000
ENCODING 238
SWIDTH 411 0
DWIDTH 7 0
BBX 7 12 0 -2
BITMAP
00
00
7C
44
44
44
44
44
44
7C
00
00
ENDCHAR
STARTCHAR U+0000
ENCODING 239
SWIDTH 411 0
DWIDTH 7 0
BBX 7 12 0 -2
BITMAP
00
00
7C
44
44
44
44
44
44
7C
00
00
ENDCHAR
STARTCHAR U+0000
ENCODING 240
SWIDTH 411 0
DWIDTH 7 0
BBX 7 12 0 -2
BITMAP
00
00
7C
44
44
44
44
44
44
7C
00
00
ENDCHAR
STARTCHAR U+0000
ENCODING 241
SWIDTH 411 0
DWIDTH 7 0
BBX 7 12 0 -2
BITMAP
00
00
7C
44
44
44
44
44
44
7C
00
00
ENDCHAR
STARTCHAR U+0000
ENCODING 242
SWIDTH 411 0
DWIDTH 7 0
BBX 7 12 0 -2
BITMAP
00
00
7C
44
44
44
44
44
44
7C
00
00
ENDCHAR
STARTCHAR U+0000
ENCODING 243
SWIDTH 411 0
DWIDTH 7 0
BBX 7 12 0 -2
BITMAP
00
00
7C
44
44
44
44
44
44
7C
00
00
ENDCHAR
STARTCHAR U+0000
ENCODING 244
SWIDTH 411 0
DWIDTH 7 0
BBX 7 12 0 -2
BITMAP
00
00
7C
44
44
44
44
44
44
7C
00
00
ENDCHAR
STARTCHAR U+0000
ENCODING 245
SWIDTH 411 0
DWIDTH 7 0
BBX 7 12 0 -2
BITMAP
00
00
7C
44
44
44
44
44
44
7C
00
00
ENDCHAR
STARTCHAR U+0000
ENCODING 246
SWIDTH 411 0
DWIDTH 7 0
BBX 7 12 0 -2
BITMAP
00
00
7C
44
44
44
44
44
44
7C
00
00
ENDCHAR
STARTCHAR U+0000
ENCODING 247
SWIDTH 411 0
DWIDTH 7 0
BBX 7 12 0 -2
BITMAP
00
00
7C
44
44
44
44
44
44
7C
00
00
ENDCHAR
STARTCHAR U+0000
ENCODING 248
SWIDTH 411 0
DWIDTH 7 0
BBX 7 12 0 -2
BITMAP
00
00
7C
44
44
44
44
44
44
7C
00
00
ENDCHAR
STARTCHAR U+0000
ENCODING 249
SWIDTH 411 0
DWIDTH 7 0
BBX 7 12 0 -2
BITMAP
00
00
7C
44
44
44
44
44
44
7C
00
00
ENDCHAR
STARTCHAR U+0000
ENCODING 250
SWIDTH 411 0
DWIDTH 7 0
BBX 7 12 0 -2
BITMAP
00
00
7C
44
44
44
44
44
44
7C
00
00
ENDCHAR
STARTCHAR U+0000
ENCODING 251
SWIDTH 411 0
DWIDTH 7 0
BBX 7 12 0 -2
BITMAP
00
00
7C
44
44
44
44
44
44
7C
00
00
ENDCHAR
STARTCHAR U+0000
ENCODING 252
SWIDTH 411 0
DWIDTH 7 0
BBX 7 12 0 -2
BITMAP
00
00
7C
44
44
44
44
44
44
7C
00
00
ENDCHAR
STARTCHAR U+0000
ENCODING 253
SWIDTH 411 0
DWIDTH 7 0
BBX 7 12 0 -2
BITMAP
00
00
7C
44
44
44
44
44
44
7C
00
00
ENDCHAR
STARTCHAR U+0000
ENCODING 254
SWIDTH 411 0
DWIDTH 7 0
BBX 7 12 0 -2
BITMAP
00
00
7C
44
44
44
44
44
44
7C
00
00
ENDCHAR
STARTCHAR U+0000
ENCODING 255
SWIDTH 411 0
DWIDTH 7 0
BBX 7 12 0 -2
BITMAP
00
00
7C
44
44
44
44
44
44
7C
00
00
ENDCHAR
STARTCHAR block
ENCODING 9608
SWIDTH 411 0
DWIDTH 7 0
BBX 7 12 0 -2
BITMAP
FC
FC
FC
FC
FC
FC
FC
FC
FC
FC
FC
FC
ENDCHAR
STARTCHAR uniE0A0
ENCODING 57504
SWIDTH 411 0
DWIDTH 7 0
BBX 7 12 0 -2
BITMAP
60
68
6C
78
68
68
48
18
60
60
60
60
ENDCHAR
STARTCHAR uniE0A1
ENCODING 57505
SWIDTH 411 0
DWIDTH 7 0
BBX 7 12 0 -2
BITMAP
00
40
40
40
40
70
00
28
38
38
28
28
ENDCHAR
STARTCHAR uniE0A2
ENCODING 57506
SWIDTH 411 0
DWIDTH 7 0
BBX 7 12 0 -2
BITMAP
00
00
38
48
48
78
68
68
78
78
78
00
ENDCHAR
STARTCHAR uniE0B0
ENCODING 57520
SWIDTH 411 0
DWIDTH 7 0
BBX 7 12 0 -2
BITMAP
80
C0
E0
F0
F8
F8
FC
F8
F0
E0
C0
C0
ENDCHAR
STARTCHAR uniE0B1
ENCODING 57521
SWIDTH 411 0
DWIDTH 7 0
BBX 7 12 0 -2
BITMAP
80
40
20
10
18
08
04
08
10
20
40
C0
ENDCHAR
STARTCHAR uniE0B2
ENCODING 57522
SWIDTH 411 0
DWIDTH 7 0
BBX 7 12 0 -2
BITMAP
04
0C
0C
1C
3C
7C
FC
7C
3C
1C
0C
04
ENDCHAR
STARTCHAR uniE0B3
ENCODING 57523
SWIDTH 411 0
DWIDTH 7 0
BBX 7 12 0 -2
BITMAP
04
0C
08
10
20
40
80
40
20
10
08
04
ENDCHAR
ENDFONT
